<!-- SVG SPRITE SHEET -->
<svg style="display:none;">
    <!-- D20 -->
    <symbol id="d20-orient-1" viewBox="0 0 150 150">
        <defs><linearGradient id="d20-lg-1" x1="25.8" y1="25.8" x2="124.04" y2="124.04" gradientUnits="userSpaceOnUse"><stop offset="0" stop-color="#eff0f6"/><stop offset="1" stop-color="#a5a5aa"/></linearGradient><clipPath id="d20-cp-1"><path d="M128.47 112.37a12.49 12.49 0 0 0 5.63-9.75V47.38a12.49 12.49 0 0 0-5.63-9.75L80.64 10a12.5 12.5 0 0 0-11.27 0L21.54 37.63a12.49 12.49 0 0 0-5.63 9.75v55.24a12.49 12.49 0 0 0 5.63 9.75L69.37 140a12.5 12.5 0 0 0 11.27 0z" fill="none"/></clipPath></defs><path d="M132.8 30.12L85 2.5a21.15 21.15 0 0 0-20 0L17.2 30.12a21.1 21.1 0 0 0-10 17.26v55.24a21.09 21.09 0 0 0 10 17.26L65 147.5a21.13 21.13 0 0 0 19.94 0l47.83-27.62a21.09 21.09 0 0 0 10-17.26V47.38a21.09 21.09 0 0 0-9.97-17.26zm-8.7 74.76l-47.76 27.57a4.66 4.66 0 0 1-2.64 0l-47.79-27.56a4.7 4.7 0 0 1-1.34-2.27V47.43a4.64 4.64 0 0 1 1.3-2.29l47.79-27.59a3.65 3.65 0 0 1 1.34-.21 3.53 3.53 0 0 1 1.27.18l47.79 27.59a4.7 4.7 0 0 1 1.34 2.27v55.19a4.67 4.67 0 0 1-1.3 2.31z" fill="url(#d20-lg-1)"/><path d="M75 116l-54.7-4.49 53.86 32.33a1.52 1.52 0 0 0 1.67 0l53.87-32.34z" fill="#080d05"/><g clip-path="url(#d20-cp-1)"><path fill="#080d05" d="M75 115.98l-59.09-6.86L75 143.24l59.1-34.12-59.1 6.86z"/><path fill="#b6da9d" d="M75 6.76L15.91 40.88l23.27 13.04L75 6.76z"/><path fill="#66a23c" d="M134.1 40.88L75 6.76l35.83 47.16 23.27-13.04z"/><path fill="#375721" d="M15.91 109.12L75 141.07v-25.09l-59.09-6.86z"/><path fill="#88c35f" d="M15.91 40.88v68.24l23.27-55.2-23.27-13.04z"/><path fill="#3f6425" d="M110.83 53.92l23.27 55.2V40.88l-23.27 13.04z"/><path fill="#283f17" d="M75 141.07l59.1-31.95-59.1 6.86v25.09z"/><path fill="#76ba46" d="M75 115.98l35.83-62.06H39.18L75 115.98z"/><path fill="#9bcc78" d="M110.83 53.92L75 6.76 39.18 53.92h71.65z"/><path fill="#578933" d="M110.83 53.92L75 115.98l59.1-6.86-23.27-55.2z"/><path fill="#5e9538" d="M39.18 53.92l-23.27 55.2L75 115.98 39.18 53.92z"/></g><path d="M75.85 143.82zm-1.69 0z" fill="#5f1c00"/>
    </symbol>
    <symbol id="d20-orient-2" viewBox="0 0 150 150">
        <defs><linearGradient id="d20-lg-2" x1="32.42" y1="32.42" x2="119.03" y2="119.03" gradientUnits="userSpaceOnUse"><stop offset="0" stop-color="#eff0f6"/><stop offset="1" stop-color="#a5a5aa"/></linearGradient><clipPath id="d20-cp-2"><path d="M64.5 15.75a11.54 11.54 0 0 0-10 2.69l-36 36a11.54 11.54 0 0 0-2.69 10L29 113.66a11.52 11.52 0 0 0 7.34 7.34l49.16 13.25a11.54 11.54 0 0 0 10-2.69l36-36a11.54 11.54 0 0 0 2.69-10l-13.13-49.28a11.52 11.52 0 0 0-7.34-7.34z" fill="none"/></clipPath></defs><path d="M8 66.57l13.19 49.22a19.47 19.47 0 0 0 13 13L83.43 142a19.48 19.48 0 0 0 17.76-4.76l36-36A19.48 19.48 0 0 0 142 83.43l-13.21-49.22a19.48 19.48 0 0 0-13-13L66.57 8a19.48 19.48 0 0 0-17.76 4.76l-36 36A19.48 19.48 0 0 0 8 66.57zm54.46-43.09l49.14 13.17a4.32 4.32 0 0 1 1.74 1.7l13.17 49.17a4.25 4.25 0 0 1-.61 2.36l-36 36a4.23 4.23 0 0 1-2.34.65L38.4 113.35a3.4 3.4 0 0 1-1-.76 3.33 3.33 0 0 1-.71-.94l-13.2-49.17a4.25 4.25 0 0 1 .61-2.36l36-36a4.2 4.2 0 0 1 2.36-.64z" fill="url(#d20-lg-2)"/><g clip-path="url(#d20-cp-2)"><path fill="#080d05" d="M112.12 84.62l-63.85 17.11-17.78 17.78 60.8 16.29 44.51-44.51-23.68-6.67z"/><path fill="#9bcc78" d="M119.51 30.49L58.71 14.2l6.67 23.68 54.13-7.39z"/><path fill="#3f6425" d="M135.8 91.29l-16.29-60.8-7.39 54.13 23.68 6.67z"/><path fill="#9bcc77" d="M14.2 58.71l16.29 60.8 17.78-17.78L14.2 58.71z"/><path fill="#b6da9d" d="M58.71 14.2L14.2 58.71l51.18-20.83-6.67-23.68z"/><path fill="#76ba46" d="M48.27 101.73l63.85-17.11-46.74-46.74-17.11 63.85z"/><path fill="#66a23c" d="M112.12 84.62l7.39-54.13-54.13 7.39 46.74 46.74z"/><path fill="#91c86b" d="M65.38 37.88L14.2 58.71l34.07 43.02 17.11-63.85z"/><path fill="#283f17" d="M112.12 84.62L90.23 131.8l45.57-40.51-23.68-6.67z"/><path fill="#375821" d="M30.49 119.51l59.74 12.29-41.96-30.07-17.78 17.78z"/><path fill="#47702a" d="M112.12 84.62l-63.85 17.11 41.96 30.07 21.89-47.18z"/></g>
    </symbol>
    <symbol id="d20-orient-3" viewBox="0 0 150 150">
        <defs><linearGradient id="d20-lg-3" x1="5.9" y1="75" x2="144.1" y2="75" gradientUnits="userSpaceOnUse"><stop offset="0" stop-color="#eff0f6"/><stop offset="1" stop-color="#a5a5aa"/></linearGradient><clipPath id="d20-cp-3"><path d="M70.3 18L17.2 56.61a8 8 0 0 0-2.9 8.94L34.58 128a8 8 0 0 0 7.61 5.53h65.62a8 8 0 0 0 7.61-5.53l20.28-62.45a8 8 0 0 0-2.9-8.94L79.7 18a8 8 0 0 0-9.4 0z" fill="none"/></clipPath></defs><path d="M107.82 141.5H42.19A16 16 0 0 1 27 130.45L6.69 68a16 16 0 0 1 5.81-17.86l53.1-38.58a16 16 0 0 1 18.8 0l53.1 38.58A16 16 0 0 1 143.31 68L123 130.45a16 16 0 0 1-15.18 11.05zM75 24.51L21.9 63.08l20.29 62.42h65.63l20.28-62.42z" fill="url(#d20-lg-3)"/><g clip-path="url(#d20-cp-3)"><path fill="#375721" d="M75.01 81.3l-39.5 50.41 78.21-.18L75.01 81.3z"/><path fill="#3f6425" d="M75.01 81.28l39.3 51.01 23.17-71.32-62.47 20.31z"/><path fill="#66a23c" d="M75.01 81.25l62.48-20.28-62.5-45.41.02 65.69z"/><path fill="#b6da9d" d="M74.99 81.25l.02-65.69-62.5 45.41 62.48 20.28z"/><path fill="#88c35f" d="M74.99 81.28L12.52 60.97l22.99 70.74 39.48-50.43z"/><path fill="#080d05" d="M35.51 131.71l.87 2.73h77.25l.91-2.88-79.03.15z"/></g>
    </symbol>
    <!-- D12 -->
    <symbol id="d12-orient-1" viewBox="0 0 150 150">
        <defs><linearGradient id="d12-lg-1" x1="26.2" y1="26.2" x2="121.2" y2="121.2" gradientUnits="userSpaceOnUse"><stop offset="0" stop-color="#eff0f6"/><stop offset="1" stop-color="#a5a5aa"/></linearGradient><clipPath id="d12-cp-1"><path d="M15.56 58.29v33.42a8 8 0 0 0 1.53 4.71l19.65 27a8 8 0 0 0 4 2.91l31.79 10.37a8 8 0 0 0 4.94 0l31.79-10.33a8 8 0 0 0 4-2.91l19.65-27a8 8 0 0 0 1.53-4.71V58.29a8 8 0 0 0-1.53-4.71l-19.65-27a8 8 0 0 0-4-2.91L77.47 13.3a8 8 0 0 0-4.94 0L40.74 23.63a8 8 0 0 0-4 2.91l-19.65 27a8 8 0 0 0-1.53 4.75z" fill="none"/></clipPath></defs><path d="M75 145.09a16.13 16.13 0 0 1-4.94-.78L38.26 134a15.93 15.93 0 0 1-8-5.82l-19.65-27a15.91 15.91 0 0 1-3.06-9.41V58.29a15.89 15.89 0 0 1 3.06-9.41l19.64-27a15.91 15.91 0 0 1 8-5.82L70.06 5.69A15.85 15.85 0 0 1 80 5.7L111.74 16a15.81 15.81 0 0 1 8 5.81l19.65 27a16 16 0 0 1 3.05 9.41v33.49a16 16 0 0 1-3.05 9.41l-19.65 27a16 16 0 0 1-8 5.82l-31.8 10.33a16.09 16.09 0 0 1-4.94.82zm-51.44-86.8v33.42l19.65 27.05L75 129.09l31.79-10.33 19.65-27.05V58.29l-19.65-27L75 20.91 43.21 31.24z" fill="url(#d12-lg-1)"/><g clip-path="url(#d12-cp-1)"><path fill="#001c29" d="M50.28 110.04l-12.02 15.52L75 137.5l36.74-11.94-12.02-15.52H50.28z"/><path fill="#01a7f4" d="M115 63.02l19.44-7.33-22.7-31.25L75 12.5v21.46l40 29.06z"/><path fill="#3bc0fe" d="M35 63.02l-19.44-7.33v38.62l22.7 31.25 12.02-15.52L35 63.02z"/><path fill="#8fdbff" d="M75 33.96V12.5L38.26 24.44l-22.7 31.25L35 63.02l40-29.06z"/><path fill="#0178b0" d="M115 63.02l-15.28 47.02 12.02 15.52 22.7-31.25V55.69L115 63.02z"/><path fill="#01567e" d="M50.28 110.04l-12.02 15.52L75 134.5l36.74-8.94-12.02-15.52H50.28z"/><path fill="#19b5fe" d="M35 63.02l15.28 47.02h49.44L115 63.02 75 33.96 35 63.02z"/></g>
    </symbol>
    <symbol id="d12-orient-2" viewBox="0 0 150 150">
        <defs><linearGradient id="d12-lg-2" x1="26.9" y1="26.3" x2="121.59" y2="121" gradientUnits="userSpaceOnUse"><stop offset="0" stop-color="#eff0f6"/><stop offset="1" stop-color="#a5a5aa"/></linearGradient><clipPath id="d12-cp-2"><path d="M136.08 59.69l-17.76-30.76a8.07 8.07 0 0 0-3.07-3L96.14 15.4H55.92a8 8 0 0 0-3.86 1l-17.31 9.52a8.07 8.07 0 0 0-3.07 3L13.92 59.69a8 8 0 0 0-1.07 3.88l-.32 20.26A8 8 0 0 0 13.6 88l18.94 32.79a8 8 0 0 0 3 3l17.7 9.86a8 8 0 0 0 3.89 1h35.71a8 8 0 0 0 3.89-1l17.7-9.86a8 8 0 0 0 3-3L136.4 88a8 8 0 0 0 1.07-4.12l-.32-20.26a8 8 0 0 0-1.07-3.93z" fill="none"/></clipPath></defs><path d="M92.84 142.6H57.16a16 16 0 0 1-7.78-2l-17.7-9.86a16 16 0 0 1-6.07-6L6.68 92a16 16 0 0 1-2.15-8.24l.32-20.26A16 16 0 0 1 7 55.7l17.75-30.77a16 16 0 0 1 6.14-6L48.2 9.39a16 16 0 0 1 7.72-2H98.2l20.91 11.52a16 16 0 0 1 6.14 6L143 55.69a16 16 0 0 1 2.14 7.75l.32 20.26a16 16 0 0 1-2.14 8.3l-18.93 32.79a16 16 0 0 1-6.07 6l-17.7 9.86a16.06 16.06 0 0 1-7.78 1.95zM55.92 23.4L38.6 32.93 20.84 63.69 20.53 84l18.93 32.79 17.7 9.86h35.68l17.7-9.86L129.47 84l-.32-20.26-17.75-30.81-17.32-9.53z" fill="url(#d12-lg-2)"/><g clip-path="url(#d12-cp-2)"><path fill="#001c29" d="M33.64 122.65l21.45 11.95h39.82l21.45-11.95L75 113.86l-41.36 8.79z"/><path fill="#01a7f4" d="M137.5 86.04l-.38-24.55L117.21 27 96.14 15.4l13.07 39.21 28.29 31.43z"/><path fill="#01567e" d="M33.64 122.65l21.45 9.95h39.82l21.45-9.95L75 113.86l-41.36 8.79z"/><path fill="#8fdbff" d="M40.79 54.61L53.86 15.4 32.79 27 12.88 61.49l-.38 24.55 28.29-31.43z"/><path fill="#3bc0fe" d="M75 73.96l34.21-19.35L96.14 15.4H53.86L40.79 54.61 75 73.96z"/><path fill="#00d025" d="M109.21 54.61L75 73.96l34.21-19.35z"/><path fill="#0178b0" d="M116.36 122.65l21.14-36.61-28.29-31.43L75 73.96v39.9l41.36 8.79z"/><path fill="#19b5fe" d="M33.64 122.65L75 113.86v-39.9L40.79 54.61 12.5 86.04l21.14 36.61z"/></g>
    </symbol>
    <symbol id="d12-orient-3" viewBox="0 0 150 150">
        <defs><linearGradient id="d12-lg-3" x1="25.89" y1="26.01" x2="122.83" y2="122.95" gradientUnits="userSpaceOnUse"><stop offset="0" stop-color="#eff0f6"/><stop offset="1" stop-color="#a5a5aa"/></linearGradient><clipPath id="d12-cp-3"><path d="M114.43 25.77l-17.7-9.86a8 8 0 0 0-3.89-1H57.16a8 8 0 0 0-3.89 1l-17.7 9.86a8 8 0 0 0-3 3L13.6 61.55a8 8 0 0 0-1.07 4.12l.32 20.26a8 8 0 0 0 1.07 3.88l17.83 30.89a8.08 8.08 0 0 0 2.82 2.87L52 134a7.93 7.93 0 0 0 4.11 1.14h37.82A7.93 7.93 0 0 0 98 134l17.39-10.39a8.08 8.08 0 0 0 2.82-2.87l17.83-30.89a8 8 0 0 0 1.07-3.88l.32-20.26a8 8 0 0 0-1.07-4.12l-18.9-32.83a8 8 0 0 0-3.03-2.99z" fill="none"/></clipPath></defs><path d="M93.93 143.1H56.07a16 16 0 0 1-8.21-2.27l-17.39-10.4a16.07 16.07 0 0 1-5.65-5.73L7 93.81a16 16 0 0 1-2.14-7.75L4.54 65.8a16 16 0 0 1 2.13-8.25l18.94-32.79a16 16 0 0 1 6.07-6l17.7-9.86a16.06 16.06 0 0 1 7.78-2h35.68a16.06 16.06 0 0 1 7.78 2l17.7 9.86a16 16 0 0 1 6.07 6l18.93 32.79a15.89 15.89 0 0 1 2.14 8.25l-.31 20.25A16 16 0 0 1 143 93.8l-17.84 30.9a16 16 0 0 1-5.64 5.73l-17.39 10.4a16 16 0 0 1-8.2 2.27zM57.16 22.9l-17.7 9.86-18.93 32.79.31 20.26 17.84 30.89 17.39 10.4h37.86l17.39-10.4 17.84-30.89.31-20.26-18.93-32.79-17.7-9.86z" fill="url(#d12-lg-3)"/><g clip-path="url(#d12-cp-3)"><path fill="#001c29" d="M109.21 94.89L75 75.54 40.79 94.89 12.5 63.46l.38 24.55 19.91 34.49 21.07 12.6h42.28l21.07-12.6 19.91-34.49.38-24.55-28.29 31.43z"/><path fill="#19b5fe" d="M12.5 63.46l.38 24.55 19.91 34.49 21.07 10.6-13.07-38.21L12.5 63.46z"/><path fill="#8fdbff" d="M116.36 26.85L94.91 14.9H55.09L33.64 26.85 75 35.64l41.36-8.79z"/><path fill="#01567e" d="M109.21 94.89L96.14 133.1l21.07-10.6 19.91-34.49.38-24.55-28.29 31.43z"/><path fill="#0178b0" d="M75 75.54L40.79 94.89l13.07 38.21h42.28l13.07-38.21L75 75.54z"/><path fill="#00d025" d="M40.79 94.89L75 75.54 40.79 94.89z"/><path fill="#3bc0fe" d="M33.64 26.85L12.5 63.46l28.29 31.43L75 75.54v-39.9l-41.36-8.79z"/><path fill="#01a7f4" d="M116.36 26.85L75 35.64v39.9l34.21 19.35 28.29-31.43-21.14-36.61z"/></g>
    </symbol>
    <!-- D10 -->
    <symbol id="d10-orient-1" viewBox="0 0 150 150">
        <defs><linearGradient id="d10-lg-1" x1="37.34" y1="36.96" x2="112.73" y2="112.35" gradientUnits="userSpaceOnUse"><stop offset="0" stop-color="#eff0f6"/><stop offset="1" stop-color="#a5a5aa"/></linearGradient><clipPath id="d10-cp-1"><path d="M69.6 17.48L18.8 64a8 8 0 0 0-2.49 7.2l1.86 11.25A7.94 7.94 0 0 0 20.61 87l48.94 45.47a8 8 0 0 0 10.9 0L129.39 87a7.94 7.94 0 0 0 2.44-4.56l1.86-11.25A8 8 0 0 0 131.2 64L80.4 17.48a8 8 0 0 0-10.8 0z" fill="none"/></clipPath></defs><path d="M75 142.62a15.94 15.94 0 0 1-10.89-4.26L15.17 92.9a16.14 16.14 0 0 1-4.9-9.13L8.42 72.53a16 16 0 0 1 5-14.4L64.2 11.61a15.92 15.92 0 0 1 21.61 0l50.79 46.52a15.93 15.93 0 0 1 5 14.39l-1.85 11.25a16 16 0 0 1-4.9 9.13l-48.96 45.46A15.94 15.94 0 0 1 75 142.62zm0-119.21L24.21 69.93l1.85 11.24L75 126.64l48.94-45.47 1.85-11.24L75 23.41" fill="url(#d10-lg-1)"/><g clip-path="url(#d10-cp-1)"><path fill="#2c073c" d="M109.47 76.96L75 102.42 40.59 76.96l-21.98 8.19L75 137.54l56.39-52.39-21.92-8.19z"/><path fill="#e2b1f6" d="M15.61 66.93l3 18.22 21.98-8.19L75 12.54 15.61 66.93z"/><path fill="#ae27e7" d="M134.39 66.93l-3 18.22-21.92-8.19L75 12.54l59.39 54.39z"/><path fill="#bf55ec" d="M75 12.54L40.59 76.96 75 102.42l34.47-25.46L75 12.54z"/><path fill="#9116c5" d="M18.61 85.15l21.98-8.19L75 102.42v30.12L18.61 85.15z"/><path fill="#7a13a7" d="M131.39 85.15l-21.92-8.19L75 102.42v30.12l56.39-47.39z"/></g>
    </symbol>
    <symbol id="d10-orient-2" viewBox="0 0 150 150">
        <defs><linearGradient id="d10-lg-2" x1="37.95" y1="27.18" x2="113.54" y2="102.77" gradientTransform="rotate(-.25 2568.849 138.531)" gradientUnits="userSpaceOnUse"><stop offset="0" stop-color="#eff0f6"/><stop offset="1" stop-color="#a5a5aa"/></linearGradient><clipPath id="d10-cp-2"><path d="M80.38 132.52L131.17 86a8 8 0 0 0 2.49-7.2l-1.85-11.25a8 8 0 0 0-2.45-4.55L80.42 17.52a8 8 0 0 0-10.89 0L20.59 63a8 8 0 0 0-2.45 4.56L16.29 78.8a8 8 0 0 0 2.49 7.2l50.79 46.52a8 8 0 0 0 10.81 0z" fill="none"/></clipPath></defs><path d="M74.68 7.38a15.93 15.93 0 0 1 10.91 4.21l49.14 45.25a16.12 16.12 0 0 1 4.94 9.1l1.9 11.24a16 16 0 0 1-4.92 14.42l-50.59 46.74a15.92 15.92 0 0 1-21.61.1l-51-46.29a16 16 0 0 1-5-14.38l1.8-11.26a16.05 16.05 0 0 1 4.86-9.14l48.7-45.69a16 16 0 0 1 10.87-4.3zm.53 119.21l50.58-46.74-1.9-11.24-49.14-45.25L26 69l-1.79 11.3 51 46.29" fill="url(#d10-lg-2)"/><g clip-path="url(#d10-cp-2)"><path fill="#2c073c" d="M131.37 64.85l-21.98 8.19-34.41-25.46-34.47 25.46-21.92-8.19-3 18.22 59.39 54.39 59.39-54.39-3-18.22z"/><path fill="#7a13a7" d="M134.37 83.07l-3-18.22-21.98 8.19-34.41 59.42 59.39-49.39z"/><path fill="#ae27e7" d="M15.59 83.07l3-18.22 21.92 8.19 34.47 59.42-59.39-49.39z"/><path fill="#bf55ec" d="M74.98 132.46l34.41-59.42-34.41-25.46-34.47 25.46 34.47 59.42z"/><path fill="#ae27e7" d="M131.37 64.85l-21.98 8.19-34.41-25.46V12.46l56.39 52.39z"/><path fill="#e2b1f6" d="M18.59 64.85l21.92 8.19 34.47-25.46V12.46L18.59 64.85z"/></g>
    </symbol>
    <symbol id="d10-orient-3" viewBox="0 0 150 150">
        <defs><linearGradient id="d10-lg-3" x1="26.99" y1="28.77" x2="121.01" y2="122.8" gradientUnits="userSpaceOnUse"><stop offset="0" stop-color="#eff0f6"/><stop offset="1" stop-color="#a5a5aa"/></linearGradient><clipPath id="d10-cp-3"><path d="M72.21 13.43L40.86 25.1a8 8 0 0 0-3.48 2.52L16.59 53.83a8 8 0 0 0-1.72 5.31l1.41 33.42a8.07 8.07 0 0 0 1.33 4.09l18.5 27.87a8 8 0 0 0 4.52 3.28l32.22 9a7.85 7.85 0 0 0 4.3 0l32.22-9a8 8 0 0 0 4.52-3.28l18.5-27.87a8.07 8.07 0 0 0 1.33-4.09l1.41-33.42a8 8 0 0 0-1.72-5.31l-20.79-26.21a8 8 0 0 0-3.48-2.52L77.79 13.43a7.89 7.89 0 0 0-5.58 0z" fill="none"/></clipPath></defs><path d="M75 145.08a16.1 16.1 0 0 1-4.3-.59l-32.22-9a15.94 15.94 0 0 1-9-6.57L11 101.07a15.89 15.89 0 0 1-2.71-8.17L6.87 59.48a16 16 0 0 1 3.46-10.62l20.79-26.21a16 16 0 0 1 7-5l31.3-11.72a16 16 0 0 1 11.17 0l31.34 11.67a16 16 0 0 1 7 5.06l20.78 26.2a16 16 0 0 1 3.45 10.62l-1.45 33.42a15.89 15.89 0 0 1-2.66 8.17l-18.5 27.87a15.94 15.94 0 0 1-9 6.57l-32.22 9a16.1 16.1 0 0 1-4.33.57zm0-124.16L43.65 32.6 22.86 58.8l1.42 33.42 18.5 27.88 32.22 9 32.22-9 18.5-27.87 1.42-33.43-20.79-26.2z" fill="url(#d10-lg-3)"/><g clip-path="url(#d10-cp-3)"><path fill="#6f1197" d="M75 75.86l-37.24 51.26L75 137.5l37.24-10.38L75 75.86z"/><path fill="#8614b6" d="M75 75.86l37.24 51.26 21.38-32.21 1.64-38.63L75 75.86z"/><path fill="#b336e9" d="M75 75.86l60.26-19.58-24.03-30.29L75 12.5v63.36z"/><path fill="#dca1f5" d="M75 75.86V12.5L38.77 25.99 14.74 56.28 75 75.86z"/><path fill="#a719e4" d="M75 75.86L14.74 56.28l1.64 38.63 21.38 32.21L75 75.86z"/></g>
    </symbol>
    <!-- D8 -->
    <symbol id="d8-orient-1" viewBox="0 0 150 150">
        <defs><linearGradient id="d8-lg-1" x1="32.61" y1="32.61" x2="121.96" y2="121.96" gradientUnits="userSpaceOnUse"><stop offset="0" stop-color="#eff0f6"/><stop offset="1" stop-color="#a5a5aa"/></linearGradient><clipPath id="d8-cp-1"><path d="M20.87 48.37v53.26a8 8 0 0 0 4 6.93L71 135.19a8 8 0 0 0 8 0l46.13-26.63a8 8 0 0 0 4-6.93V48.37a8 8 0 0 0-4-6.93L79 14.81a8 8 0 0 0-8 0L24.87 41.44a8 8 0 0 0-4 6.93z" fill="none"/></clipPath></defs><path d="M75 144.26a16 16 0 0 1-8-2.14l-46.13-26.63a16.06 16.06 0 0 1-8-13.86V48.37a16.06 16.06 0 0 1 8-13.86L67 7.88a16 16 0 0 1 16 0l46.13 26.63a16.06 16.06 0 0 1 8 13.86v53.26a16.06 16.06 0 0 1-8 13.86L83 142.12a16 16 0 0 1-8 2.14zm0-122.52L28.87 48.37v53.26L75 128.26l46.13-26.63V48.37z" fill="url(#d8-lg-1)"/><g clip-path="url(#d8-cp-1)"><path fill="#e2b80d" d="M129.13 106.25v-62.5L75 12.5l54.13 93.75z"/><path fill="#413504" d="M129.13 106.25H20.9l-.01.01L75 137.5l54.13-31.25z"/><path fill="#fae89f" d="M20.87 106.25L75 12.5 20.87 43.75v62.5l.02.01.01-.01h-.03z"/><path fill="#f4d03f" d="M75 12.5l-54.13 93.75h108.26L75 12.5z"/><path fill="#b2910a" d="M129.13 106.25H20.9l-.01.01L75 133.5l54.13-27.25z"/></g>
    </symbol>
    <symbol id="d8-orient-2" viewBox="0 0 150 150">
        <defs><linearGradient id="d8-lg-2" x1="32" y1="24.05" x2="131.8" y2="123.85" gradientUnits="userSpaceOnUse"><stop offset="0" stop-color="#eff0f6"/><stop offset="1" stop-color="#a5a5aa"/></linearGradient><clipPath id="d8-cp-2"><path d="M34.13 26.89l-10.78 46.3a8.19 8.19 0 0 0 0 3.62l10.78 46.3a8 8 0 0 0 7.26 6.17l76.93 5.15a8 8 0 0 0 8.53-8V23.55a8 8 0 0 0-8.53-8l-76.93 5.17a8 8 0 0 0-7.26 6.17z" fill="none"/></clipPath></defs><path d="M118.84 142.45h-1.06l-76.92-5.15a15.91 15.91 0 0 1-14.52-12.33L15.56 78.63a16.18 16.18 0 0 1 0-7.26l10.78-46.29a15.91 15.91 0 0 1 14.52-12.34l76.92-5.15a16 16 0 0 1 17.07 16v102.9a16 16 0 0 1-16 16zM41.92 28.7L31.15 75l10.77 46.3 76.93 5.15V23.55L41.92 28.7z" fill="url(#d8-lg-2)"/><g clip-path="url(#d8-cp-2)"><path fill="#f1c40f" d="M23.04 75l103.92 57V15L23.04 75z"/><path fill="#fae89f" d="M126.96 15l-91.37 6.12L23.04 75l103.92-60z"/><path fill="#413504" d="M35.59 128.88l91.37 6.12v-3l-92.08-6.17"/><path fill="#d2ab0c" d="M126.96 132L23.04 75l103.92 57z"/><path fill="#d2ab0c" d="M126.96 132l-92.08-6.17L23.04 75l103.92 57z"/></g>
    </symbol>
    <symbol id="d8-orient-3" viewBox="0 0 150 150">
        <defs><linearGradient id="d8-lg-3" x1="22.18" y1="22.18" x2="127.68" y2="127.68" gradientUnits="userSpaceOnUse"><stop offset="0" stop-color="#eff0f6"/><stop offset="1" stop-color="#a5a5aa"/></linearGradient><clipPath id="d8-cp-3"><rect x="24.8" y="24.8" width="100.4" height="100.4" rx="8" ry="8" fill="none"/></clipPath></defs><path d="M117.9 132.5H32.1a14.62 14.62 0 0 1-14.6-14.6V32.1a14.62 14.62 0 0 1 14.6-14.6h85.8a14.62 14.62 0 0 1 14.6 14.6v85.8a14.62 14.62 0 0 1-14.6 14.6zM32.1 32.1v85.8h85.81V32.1z" fill="url(#d8-lg-3)"/><g clip-path="url(#d8-cp-3)"><path fill="#f6d85f" d="M24.8 24.8v96.75L75 75 24.8 24.8z"/><path fill="#fae89f" d="M125.2 24.8H24.8L75 75l50.2-50.2z"/><path fill="#b2910a" d="M24.8 121.55h100.4L75 75l-50.2 46.55z"/><path fill="#e2b80d" d="M75 75l50.2 46.55V24.8L75 75z"/><path fill="#413504" d="M24.8 121.55h100.4v3.65H24.8z"/></g>
    </symbol>
    <!-- D6 -->
    <symbol id="d6-orient-1" viewBox="0 0 150 150">
        <defs><linearGradient id="d6-lg-1" x1="32.78" y1="32.78" x2="118.12" y2="118.12" gradientUnits="userSpaceOnUse"><stop offset="0" stop-color="#eff0f6"/><stop offset="1" stop-color="#a5a5aa"/></linearGradient><clipPath id="d6-cp-1"><rect x="32.5" y="32.5" width="85" height="85" rx="8" ry="8" fill="none"/></clipPath></defs><path d="M109.5 125.5h-69a16 16 0 0 1-16-16v-69a16 16 0 0 1 16-16h69a16 16 0 0 1 16 16v69a16 16 0 0 1-16 16zm-69-85v69h69v-69z" fill="url(#d6-lg-1)"/><g clip-path="url(#d6-cp-1)"><path fill="#523102" d="M32.5 114.1h85v3.4h-85z"/><path fill="#f89406" d="M32.5 32.5h85v81.6h-85z"/></g>
    </symbol>
    <symbol id="d6-orient-2" viewBox="0 0 150 150">
        <defs><linearGradient id="d6-lg-2" x1="30.83" y1="30.83" x2="121.74" y2="121.74" gradientUnits="userSpaceOnUse"><stop offset="0" stop-color="#eff0f6"/><stop offset="1" stop-color="#a5a5aa"/></linearGradient><clipPath id="d6-cp-2"><path d="M20.87 48.37v53.26a8 8 0 0 0 4 6.93L71 135.19a8 8 0 0 0 8 0l46.13-26.63a8 8 0 0 0 4-6.93V48.37a8 8 0 0 0-4-6.93L79 14.81a8 8 0 0 0-8 0L24.87 41.44a8 8 0 0 0-4 6.93z" fill="none"/></clipPath></defs><path d="M75 144.26a16 16 0 0 1-8-2.14l-46.13-26.63a16.06 16.06 0 0 1-8-13.86V48.37a16.06 16.06 0 0 1 8-13.86L67 7.88a16 16 0 0 1 16 0l46.13 26.63a16.06 16.06 0 0 1 8 13.86v53.26a16.06 16.06 0 0 1-8 13.86L83 142.12a16 16 0 0 1-8 2.14zM28.87 48.37v53.26L75 128.26l46.13-26.63V48.37L75 21.74z" fill="url(#d6-lg-2)"/><g clip-path="url(#d6-cp-2)"><path fill="#e78a06" d="M20.87 43.75v59.5L75 134.5V75L20.87 43.75z"/><path fill="#fbbf69" d="M129.13 43.75L75 12.5 20.87 43.75 75 75l54.13-31.25z"/><path fill="#b66c04" d="M75 75v59.5l54.13-31.25v-59.5L75 75z"/><path fill="#523102" d="M75 134.48l-54.13-31.25v3.02L75 137.5l54.13-31.25v-3.02L75 134.48z"/></g>
    </symbol>
    <symbol id="d6-orient-3" viewBox="0 0 150 150">
        <defs><linearGradient id="d6-lg-3" x1="32.66" y1="32.66" x2="120.97" y2="120.98" gradientUnits="userSpaceOnUse"><stop offset="0" stop-color="#eff0f6"/><stop offset="1" stop-color="#a5a5aa"/></linearGradient><clipPath id="d6-cp-3"><path d="M20.87 48.37v53.26a8 8 0 0 0 4 6.93L71 135.19a8 8 0 0 0 8 0l46.13-26.63a8 8 0 0 0 4-6.93V48.37a8 8 0 0 0-4-6.93L79 14.81a8 8 0 0 0-8 0L24.87 41.44a8 8 0 0 0-4 6.93z" fill="none"/></clipPath></defs><path d="M75 144.26a16 16 0 0 1-8-2.14l-46.13-26.63a16.06 16.06 0 0 1-8-13.86V48.37a16.06 16.06 0 0 1 8-13.86L67 7.88a16 16 0 0 1 16 0l46.13 26.63a16.06 16.06 0 0 1 8 13.86v53.26a16.06 16.06 0 0 1-8 13.86L83 142.12a16 16 0 0 1-8 2.14zM28.87 48.37v53.26L75 128.26l46.13-26.63V48.37L75 21.74z" fill="url(#d6-lg-3)"/><g clip-path="url(#d6-cp-3)"><path fill="#523102" d="M20.87 106.25L75 137.5l54.13-31.25L75 75l-54.13 31.25z"/><path fill="#d78005" d="M129.13 106.25v-62.5L75 12.5V75l54.13 31.25z"/><path fill="#a56304" d="M20.87 106.25L75 133.5l54.13-27.25L75 75l-54.13 31.25z"/><path fill="#fccd8a" d="M75 75V12.5L20.87 43.75v62.5L75 75z"/></g>
    </symbol>
    <!-- D4 -->
    <symbol id="d4-orient-1" viewBox="0 0 150 150">
        <defs><linearGradient id="d4-lg-1" x1="39.26" y1="62.05" x2="112.67" y2="135.46" gradientUnits="userSpaceOnUse"><stop offset="0" stop-color="#eff0f6"/><stop offset="1" stop-color="#a5a5aa"/></linearGradient><clipPath id="d4-cp-1"><path d="M71.54 33.53L26 112.47a4 4 0 0 0 3.47 6h91.14a4 4 0 0 0 3.47-6L78.46 33.53a4 4 0 0 0-6.92 0z" fill="none"/></clipPath></defs><path d="M120.57 126.47H29.43a12 12 0 0 1-10.39-18l45.57-78.94a12 12 0 0 1 20.78 0L131 108.47a12 12 0 0 1-10.39 18zm-84.21-16h77.28L75 43.53z" fill="url(#d4-lg-1)"/><g clip-path="url(#d4-cp-1)"><path fill="#621108" d="M127.5 118.47l-2.31-4H24.81l-2.31 4h105z"/><path fill="#ef4836" d="M75 27.53l-50.19 86.94h100.38L75 27.53z"/></g>
    </symbol>
    <symbol id="d4-orient-2" viewBox="0 0 150 150">
        <defs><linearGradient id="d4-lg-2" x1="36.7" y1="43.56" x2="113.59" y2="120.45" gradientUnits="userSpaceOnUse"><stop offset="0" stop-color="#eff0f6"/><stop offset="1" stop-color="#a5a5aa"/></linearGradient><clipPath id="d4-cp-2"><path d="M134.22 91.9L77.42 135a4 4 0 0 1-4.84 0l-56.8-43.1a4 4 0 0 1-.7-5.7l56.8-70.51a4 4 0 0 1 6.24 0l56.8 70.51a4 4 0 0 1-.7 5.7z" fill="none"/></clipPath></defs><path d="M75 143.8a12 12 0 0 1-7.25-2.43L11 98.28a12 12 0 0 1-2.1-17.09l56.8-70.51a12 12 0 0 1 18.7 0l56.8 70.51a12 12 0 0 1-2.09 17.09l-56.8 43.09A12 12 0 0 1 75 143.8zM23.9 88L75 126.79 126.1 88 75 24.58z" fill="url(#d4-lg-2)"/><g clip-path="url(#d4-cp-2)"><path fill="#621108" d="M135.5 87.61L75 133.5 14.5 87.61l-2 2.48L75 137.5l62.5-47.41-2-2.48z"/><path fill="#b11e0e" d="M75 12.5v121l60.5-45.89L75 12.5z"/><path fill="#f37365" d="M14.5 87.61L75 133.5v-121L14.5 87.61z"/></g>
    </symbol>
    <symbol id="d4-orient-3" viewBox="0 0 150 150">
        <defs><linearGradient id="d4-lg-3" x1="33.39" y1="59.45" x2="119.46" y2="145.51" gradientUnits="userSpaceOnUse"><stop offset="0" stop-color="#eff0f6"/><stop offset="1" stop-color="#a5a5aa"/></linearGradient><clipPath id="d4-cp-3"><path d="M69.8 26.87l-52.1 90.26a6 6 0 0 0 5.19 9h104.22a6 6 0 0 0 5.19-9L80.2 26.87a6 6 0 0 0-10.4 0z" fill="none"/></clipPath></defs><path d="M127.11 134.13H22.89a14 14 0 0 1-12.12-21l52.11-90.26a14 14 0 0 1 24.24 0l52.11 90.26a14 14 0 0 1-12.12 21zm-100.75-16h97.28L75 33.87zm50.37-87.26z" fill="url(#d4-lg-3)"/><g clip-path="url(#d4-cp-3)"><path fill="#b11e0e" d="M137.5 126.13L75 17.87v72.17l62.5 36.09z"/><path fill="#f59085" d="M75 17.87L12.5 126.13 75 90.04V17.87z"/><path fill="#82160a" d="M75 90.04l-55.57 32.09h111.14L75 90.04z"/><path fill="#621108" d="M12.5 126.13l6.93-4h111.14l6.93 4h-125z"/></g>
    </symbol>
</svg>